<?xml version="1.0" encoding="utf-8"?>
<!-- Generator: Adobe Illustrator 24.2.3, SVG Export Plug-In . SVG Version: 6.00 Build 0)  -->
<svg version="1.1" xmlns="http://www.w3.org/2000/svg" xmlns:xlink="http://www.w3.org/1999/xlink" x="0px" y="0px"
	 viewBox="0 0 340.16 325.98" style="enable-background:new 0 0 340.16 325.98;" xml:space="preserve">
<style type="text/css">
	.st0{fill:#091023;}
	.st1{fill:#BFBFBF;}
</style>
<g id="Слой_1">
	<path class="st0" d="M318.9,34.22l0,191.31c0,2-1.16,3.82-2.99,4.67l-140.76,65.61c-3.21,1.5-6.93,1.5-10.14,0L24.26,230.16
		c-1.83-0.85-3-2.68-3-4.69V34.21c0-2.85,2.33-5.16,5.2-5.16h287.23C316.57,29.06,318.9,31.37,318.9,34.22z"/>
</g>
<g id="Слой_2">
	<g>
		<rect x="35.43" y="43.23" class="st1" width="127.56" height="14.1"/>
		<rect x="177.15" y="43.23" class="st1" width="127.57" height="14.1"/>
		<polygon class="st1" points="95.68,64.35 95.68,78.45 109.85,81.58 109.85,105.84 95.68,113.66 95.68,134.82 109.85,142.65 
			109.85,222.67 127.56,230.96 127.56,222.67 127.56,152.43 127.56,141.87 127.56,134.82 109.85,124.24 127.56,113.7 127.56,96.07 
			127.56,85.49 127.56,78.45 127.56,71.45 		"/>
		<polygon class="st1" points="166.56,78.47 166.56,64.35 138.21,71.45 138.21,78.37 138.21,85.49 138.21,221.86 138.21,234.27 
			138.21,235.95 166.56,249.21 166.56,235.12 155.89,230.13 155.89,81.11 		"/>
		<polygon class="st1" points="173.6,64.35 173.6,78.45 184.23,81.09 184.23,94.91 201.95,99.58 201.95,85.49 201.95,84.65 
			201.95,71.45 		"/>
		<polygon class="st1" points="184.23,216.36 184.23,230.15 173.6,235.12 173.6,249.21 201.95,235.95 201.95,222.37 201.95,221.86 
			201.95,207.77 		"/>
		<polygon class="st1" points="243.06,78.45 243.06,64.35 212.6,71.4 212.6,78.45 212.6,85.49 212.6,134.82 226.78,134.82 
			228.9,134.82 243.06,134.82 243.06,113.66 228.9,113.66 228.9,81.72 		"/>
		<polygon class="st1" points="283.47,64.35 251.6,64.35 251.6,78.45 265.75,78.45 265.75,92.54 283.46,92.54 283.46,78.45 
			283.47,78.45 		"/>
		<polygon class="st1" points="228.9,209.23 228.9,209.23 228.9,195.14 212.6,202.77 212.6,209.23 212.6,216.86 212.6,220.28 
			212.6,230.95 243.06,216.7 243.06,202.61 		"/>
		<polygon class="st1" points="251.6,113.66 251.6,134.82 265.75,134.82 265.75,191.99 251.6,198.61 251.6,212.71 283.46,197.8 
			283.46,192.51 283.46,183.71 283.46,134.82 283.46,133.79 283.46,113.66 		"/>
		<polygon class="st1" points="290.57,64.35 290.57,189.93 290.57,191.17 290.57,194.47 297.63,191.17 297.63,189.93 297.63,64.35 
					"/>
		<polygon class="st1" points="42.52,64.35 42.52,191.17 49.58,194.47 49.58,191.17 49.58,64.35 		"/>
		<polygon class="st1" points="88.6,78.45 88.6,64.35 56.68,64.35 56.68,71.4 56.68,78.45 56.68,197.79 74.45,206.11 74.45,197.79 
			74.43,197.79 74.43,134.82 88.6,134.82 88.6,113.66 74.43,113.66 74.43,78.45 		"/>
		<polygon class="st1" points="304.72,194.85 304.72,220.78 177.15,280.26 177.15,254.33 		"/>
		<polygon class="st1" points="35.43,194.85 35.43,220.78 163,280.26 163,254.33 		"/>
	</g>
</g>
</svg>
