<svg width="136" height="128" viewBox="0 0 136 128" fill="none" xmlns="http://www.w3.org/2000/svg">
<g filter="url(#filter0_d_127_98)">
<path d="M132 2.21905V84.4919C131.999 84.9148 131.877 85.3285 131.648 85.6843C131.419 86.0401 131.094 86.3232 130.71 86.5002L70.1804 114.716C69.4976 115.034 68.7533 115.199 68 115.199C67.2467 115.199 66.5024 115.034 65.8196 114.716L5.29015 86.483C4.90575 86.3052 4.58011 86.0214 4.35155 85.6648C4.123 85.3083 4.00103 84.8939 4 84.4704V2.21905C4.00341 1.62898 4.2408 1.06438 4.66006 0.649151C5.07931 0.233925 5.64619 0.00200497 6.23626 0.00429313H129.759C130.35 0.00200019 130.917 0.233783 131.337 0.648888C131.757 1.06399 131.995 1.62859 132 2.21905Z" fill="#091023"/>
</g>
<path d="M64.9509 6.09381H10.0938V12.1575H64.9509V6.09381Z" fill="#BFBFBF"/>
<path d="M125.902 6.09381H71.0405V12.1575H125.902V6.09381Z" fill="#BFBFBF"/>
<path d="M36.0043 15.1808V21.2402L42.0981 22.5862V33.0235L36.0043 36.3822V45.4864L42.0981 48.8493V83.2662L49.7143 86.827V83.2662V53.0552V48.5139V45.4864L42.0981 40.9364L49.7143 36.3994V28.8219V24.272V21.2402V18.2298L36.0043 15.1808Z" fill="#BFBFBF"/>
<path d="M66.4862 21.2488V15.1808L54.2943 18.2298V21.2058V24.272V82.9136V88.2548V88.9773L66.4862 94.6798V88.616L61.8976 86.4701V22.3884L66.4862 21.2488Z" fill="#BFBFBF"/>
<path d="M69.5138 15.1808V21.2402L74.0852 22.3755V28.3231L81.7057 30.3314V24.272V23.9065V18.2298L69.5138 15.1808Z" fill="#BFBFBF"/>
<path d="M74.0852 80.5483V86.4787L69.5138 88.616V94.6797L81.7057 88.9773V83.1329V82.9136V76.8542L74.0852 80.5483Z" fill="#BFBFBF"/>
<path d="M99.3893 21.2402V15.1808L86.2857 18.2126V21.2402V24.272V45.4864H92.3838H93.2955H99.3893V36.3822H93.2955V22.6507L99.3893 21.2402Z" fill="#BFBFBF"/>
<path d="M116.763 15.1808H103.058V21.2402H109.143V27.2996H116.759V21.2402H116.763V15.1808Z" fill="#BFBFBF"/>
<path d="M93.2955 77.4863V71.427L86.2857 74.7039V77.4863V80.7633V82.2341V86.827L99.3893 80.6945V74.6351L93.2955 77.4863Z" fill="#BFBFBF"/>
<path d="M103.058 36.3822V45.4864H109.143V70.0723L103.058 72.9192V78.9786L116.759 72.5709V70.2916V66.5072V45.4864V45.0391V36.3822H103.058Z" fill="#BFBFBF"/>
<path d="M119.817 15.1808V69.1821V69.7197V71.1388L122.853 69.7197V69.1821V15.1808H119.817Z" fill="#BFBFBF"/>
<path d="M13.1429 15.1808V69.7197L16.179 71.1388V69.7197V15.1808H13.1429Z" fill="#BFBFBF"/>
<path d="M32.9595 21.2402V15.1808H19.2324V18.2126V21.2402V72.5666L26.8743 76.1403V72.5666H26.8657V45.4864H32.9595V36.3822H26.8657V21.2402H32.9595Z" fill="#BFBFBF"/>
<path d="M125.902 71.2979V82.4491L71.0448 108.033V96.8816L125.902 71.2979Z" fill="#BFBFBF"/>
<path d="M10.0938 71.2979V82.4491L64.9552 108.033V96.8816L10.0938 71.2979Z" fill="#BFBFBF"/>
<defs>
<filter id="filter0_d_127_98" x="0" y="0.00427628" width="136" height="123.195" filterUnits="userSpaceOnUse" color-interpolation-filters="sRGB">
<feFlood flood-opacity="0" result="BackgroundImageFix"/>
<feColorMatrix in="SourceAlpha" type="matrix" values="0 0 0 0 0 0 0 0 0 0 0 0 0 0 0 0 0 0 127 0" result="hardAlpha"/>
<feOffset dy="4"/>
<feGaussianBlur stdDeviation="2"/>
<feColorMatrix type="matrix" values="0 0 0 0 0 0 0 0 0 0 0 0 0 0 0 0 0 0 0.25 0"/>
<feBlend mode="normal" in2="BackgroundImageFix" result="effect1_dropShadow_127_98"/>
<feBlend mode="normal" in="SourceGraphic" in2="effect1_dropShadow_127_98" result="shape"/>
</filter>
</defs>
</svg>
