<svg width="32" height="32" viewBox="0 0 32 32" fill="none" xmlns="http://www.w3.org/2000/svg">
<g clip-path="url(#clip0_142_64)">
<path d="M16.6 1.45L16 2.25L16.6 1.45ZM15.4 1.45L14.8 0.65L15.4 1.45ZM30.8 12.1L30.2 12.9L30.8 12.1ZM1.2 12.1L1.8 12.9L1.2 12.1ZM31.4 11.3L17.2 0.65L16 2.25L30.2 12.9L31.4 11.3ZM14.8 0.65L0.6 11.3L1.8 12.9L16 2.25L14.8 0.65ZM1.5 14H3.5V12H1.5V14ZM3 13.5V30H5V13.5H3ZM28.5 14H30.5V12H28.5V14ZM29 30V13.5H27V30H29ZM5 32H11V30H5V32ZM12 31V19H10V31H12ZM11 32H21V30H11V32ZM21 32H27V30H21V32ZM20 19V31H22V19H20ZM12 19H20V17H12V19ZM22 19C22 17.8954 21.1046 17 20 17V19H22ZM12 19V17C10.8954 17 10 17.8954 10 19H12ZM28.5 12C27.6716 12 27 12.6716 27 13.5H29C29 13.7761 28.7761 14 28.5 14V12ZM27 30V32C28.1046 32 29 31.1046 29 30H27ZM3 30C3 31.1046 3.89543 32 5 32V30H3ZM3.5 14C3.22386 14 3 13.7761 3 13.5H5C5 12.6716 4.32843 12 3.5 12V14ZM17.2 0.65C16.4889 0.116667 15.5111 0.116666 14.8 0.65L16 2.25V2.25L17.2 0.65ZM30.2 12.9C29.8156 12.6117 30.0195 12 30.5 12V14C31.9415 14 32.5532 12.1649 31.4 11.3L30.2 12.9ZM0.6 11.3C-0.553216 12.1649 0.0584828 14 1.5 14V12C1.9805 12 2.18441 12.6117 1.8 12.9L0.6 11.3Z" fill="#C4C4C4"/>
<path d="M11 18.5V30.5C11 30.7761 11.2239 31 11.5 31H20.5C20.7761 31 21 30.7761 21 30.5V18.5C21 18.2239 20.7761 18 20.5 18H11.5C11.2239 18 11 18.2239 11 18.5Z" fill="#C4C4C4"/>
</g>
<defs>
<clipPath id="clip0_142_64">
<rect width="32" height="32" fill="white"/>
</clipPath>
</defs>
</svg>
