<svg width="32" height="32" viewBox="0 0 32 32" fill="none" xmlns="http://www.w3.org/2000/svg">
<path d="M0 28.6923C0 29.9413 0.542815 30.8184 1.28108 31.35C1.96836 31.8448 2.76305 32 3.30769 32V30C3.0831 30 2.72395 29.9244 2.44969 29.7269C2.22642 29.5662 2 29.2895 2 28.6923H0ZM3.30769 32H29V30H3.30769V32ZM29 32C29.6025 32 30.1356 31.8735 30.5867 31.6163C31.04 31.3578 31.3542 30.9993 31.5648 30.6232C31.9657 29.9074 32 29.1111 32 28.6923H30C30 29.0427 29.9574 29.4003 29.8198 29.646C29.7612 29.7507 29.6908 29.8249 29.596 29.8789C29.499 29.9342 29.3205 30 29 30V32ZM32 28.6923V5.46154H30V28.6923H32ZM2 2H26V0H2V2ZM26 28.6923C26 29.8573 26.3999 30.7313 27.0607 31.2977C27.6888 31.8361 28.4402 32 29 32V30C28.7906 30 28.5419 29.9331 28.3623 29.7792C28.2155 29.6533 28 29.3735 28 28.6923H26ZM26 2V4.46154H28V2H26ZM26 4.46154V28.6923H28V4.46154H26ZM30 3.46154H27V5.46154H30V3.46154ZM0 2V28.6923H2V2H0ZM26 2H28C28 0.89543 27.1046 0 26 0V2ZM32 5.46154C32 4.35697 31.1046 3.46154 30 3.46154V5.46154H32ZM2 0C0.895431 0 0 0.89543 0 2H2V0Z" fill="#C4C4C4"/>
<path d="M11.5 6H5.5C5.22386 6 5 6.22386 5 6.5V13.5C5 13.7761 5.22386 14 5.5 14H11.5C11.7761 14 12 13.7761 12 13.5V6.5C12 6.22386 11.7761 6 11.5 6Z" fill="#C4C4C4" stroke="#C4C4C4" stroke-width="2"/>
<path d="M22.5 22H16.5C16.2239 22 16 22.2239 16 22.5V25.5C16 25.7761 16.2239 26 16.5 26H22.5C22.7761 26 23 25.7761 23 25.5V22.5C23 22.2239 22.7761 22 22.5 22Z" fill="#C4C4C4" stroke="#C4C4C4" stroke-width="2"/>
<line x1="5" y1="18" x2="23" y2="18" stroke="#C4C4C4" stroke-width="2" stroke-linecap="round"/>
<line x1="16" y1="10" x2="23" y2="10" stroke="#C4C4C4" stroke-width="2" stroke-linecap="round"/>
<line x1="16" y1="6" x2="23" y2="6" stroke="#C4C4C4" stroke-width="2" stroke-linecap="round"/>
<line x1="16" y1="14" x2="23" y2="14" stroke="#C4C4C4" stroke-width="2" stroke-linecap="round"/>
<line x1="5" y1="26" x2="12" y2="26" stroke="#C4C4C4" stroke-width="2" stroke-linecap="round"/>
<line x1="5" y1="22" x2="12" y2="22" stroke="#C4C4C4" stroke-width="2" stroke-linecap="round"/>
</svg>
