<svg width="32" height="32" viewBox="0 0 32 32" fill="none" xmlns="http://www.w3.org/2000/svg">
<circle cx="16" cy="16" r="15" stroke="#BFBFBF" stroke-width="2"/>
<path d="M6.86423 27.7185C6.32246 27.2411 6.03921 26.7251 6.0038 26.1291C6.95256 22.9139 8.55404 20.9108 10.3165 19.699C12.1184 18.4603 14.1604 18 16 18C17.8396 18 19.8816 18.4603 21.6835 19.699C23.4439 20.9093 25.0436 22.9092 25.9928 26.1177C25.9403 26.5737 25.5794 27.4504 24.2662 28.2794C22.8307 29.1856 20.2884 30 16 30C14.2296 30 11.5935 29.7557 9.43604 29.0496C8.35529 28.6959 7.4665 28.2491 6.86423 27.7185Z" fill="#BFBFBF" stroke="#BFBFBF" stroke-width="2"/>
<path d="M22 11C22 14.9956 19.1925 18 16 18C12.8075 18 10 14.9956 10 11C10 7.0044 12.8075 4 16 4C19.1925 4 22 7.0044 22 11Z" stroke="#BFBFBF" stroke-width="2"/>
</svg>
